<?xml version="1.0" encoding="UTF-8"?>
<svg xmlns="http://www.w3.org/2000/svg" xmlns:xlink="http://www.w3.org/1999/xlink" viewBox="0 0 717.2 432.16">
  <defs>
    <style>
      .cls-1 {
        fill: url(#linear-gradient);
      }

      .cls-1, .cls-2, .cls-3, .cls-4 {
        stroke: #228b22;
        stroke-miterlimit: 10;
        stroke-width: 5px;
      }

      .cls-2 {
        fill: url(#linear-gradient-2);
      }

      .cls-3 {
        fill: #228b22;
      }
    </style>
    <linearGradient id="linear-gradient" x1="4.61" y1="294.33" x2="254.28" y2="294.33" gradientUnits="userSpaceOnUse">
      <stop offset="0" stop-color="#000100"/>
      <stop offset="1" stop-color="#000"/>
    </linearGradient>
    <linearGradient id="linear-gradient-2" x1="292.01" y1="242.62" x2="713.77" y2="242.62" xlink:href="#linear-gradient"/>
  </defs>
  <g id="A">
    <polygon class="cls-1" points="254.28 228.58 253.67 257.03 214.6 257.03 172.85 358.97 121.73 360.08 100.03 311.66 24.16 312.48 4.61 282.48 125.83 282.48 144.26 325.12 188.28 228.58 254.28 228.58"/>
    <polygon class="cls-4" points="254.28 228.58 255.99 148.81 223.89 228.58 188.28 228.58 293.31 11.06 290.82 426.86 250.77 393.67 254.28 228.58"/>
  </g>
  <g id="Arrow">
    <polygon class="cls-2" points="292.01 256.99 679.16 257.26 653 282.29 675.46 281.98 713.77 242.62 677.47 202.94 655.56 202.94 679.78 228.85 292.01 228.58 292.01 256.99"/>
  </g>
  <g id="X">
    <polygon class="cls-4" points="380.62 313.04 396 360.55 366.16 360.55 353.32 332.83 343.46 357.26 311.2 356.77 326.69 314.67 311.2 274.32 344.77 274.39 353.32 296.56 363.03 269.97 397.14 269.97 380.62 313.04"/>
    <polygon class="cls-3" points="314.35 354.17 344.34 354.45 342.21 360.55 303.97 360.55 321.6 314.58 303.97 269.97 343.15 269.97 345.15 276.46 315.11 277 329.83 314.75 314.35 354.17"/>
  </g>
  <g id="I">
    <rect class="cls-4" x="411.41" y="269.97" width="22.8" height="90.58"/>
  </g>
  <g id="O">
    <path class="cls-4" d="M490.11,269.97c-24.39,0-44.16,20.27-44.16,45.29s19.77,45.3,44.16,45.3,44.16-20.27,44.16-45.3-19.78-45.29-44.16-45.29ZM490.7,336.42c-14.3,0-19.33-6.4-19.33-21.68,0-14.19,4.86-21.79,19.33-21.68,13.78.11,18.59,6.93,18.59,22.2s-4.29,21.16-18.59,21.16Z"/>
  </g>
  <g id="M">
    <polygon class="cls-4" points="546.02 269.97 546.02 360.55 568.19 360.55 568.19 297.69 585.24 360.55 599.31 360.55 613.8 300.32 613.8 360.55 635.12 360.55 635.12 269.97 601.01 269.97 591.67 321.81 580.98 269.97 546.02 269.97"/>
  </g>
</svg>